<svg width="28" height="28" viewBox="0 0 28 28" fill="none" xmlns="http://www.w3.org/2000/svg">
<path d="M10.388 19.25H14.609C14.5922 19.444 14.5837 19.6386 14.5833 19.8334C14.5833 21.2345 15.1165 22.5879 16.0673 23.9027C15.4373 25.0215 14.7175 25.6655 14 25.6655C12.6035 25.6655 11.2 23.2225 10.4557 19.5942L10.388 19.2512V19.25ZM10.1197 17.5H15.0197C15.5936 16.0354 16.6838 14.8315 18.0845 14.1155V14.0012C18.0845 13.2009 18.0542 12.4204 17.9958 11.6679H10.0042L9.96567 12.2372C9.86429 13.9926 9.91582 15.7535 10.1197 17.5V17.5ZM21 13.4167C21.8557 13.4155 22.703 13.5861 23.4916 13.9183C24.2802 14.2506 24.994 14.7378 25.5908 15.351C25.7329 14.1224 25.6805 12.879 25.4357 11.6667H19.754L19.7983 12.4332C19.8158 12.7925 19.8263 13.1565 19.8322 13.5229C20.2102 13.4529 20.6022 13.4167 21 13.4167ZM3.577 19.2512H8.60067C9.02533 21.6802 9.7475 23.7475 10.6913 25.193C7.72512 24.3127 5.22836 22.2933 3.74733 19.5767L3.577 19.2512ZM2.5655 11.6679H8.24717C8.12512 13.3851 8.13799 15.1093 8.28567 16.8245L8.35217 17.5012H2.86533C2.27437 15.6133 2.17082 13.6066 2.56433 11.6679H2.5655ZM17.4347 3.00653L17.3087 2.80819C19.0427 3.32287 20.6338 4.23266 21.9569 5.46608C23.28 6.6995 24.2991 8.22294 24.934 9.91669H19.579C19.2103 7.09803 18.4625 4.67603 17.4347 3.00653V3.00653ZM10.549 2.85136L10.6913 2.80819C9.6635 4.38319 8.89933 6.69203 8.49333 9.40336L8.421 9.91669H3.06833C3.69423 8.24641 4.69377 6.74135 5.99052 5.51659C7.28727 4.29182 8.84689 3.37978 10.5502 2.85019L10.549 2.85136ZM14 2.33569C15.5388 2.33569 17.087 5.30136 17.7497 9.54919L17.8045 9.91669H10.1955C10.8267 5.47286 12.418 2.33569 14 2.33569ZM26.25 19.8334C26.25 18.441 25.6969 17.1056 24.7123 16.121C23.7277 15.1365 22.3924 14.5834 21 14.5834C19.6076 14.5834 18.2723 15.1365 17.2877 16.121C16.3031 17.1056 15.75 18.441 15.75 19.8334C15.75 22.0069 17.4067 24.2842 20.65 26.7167C20.751 26.7924 20.8738 26.8334 21 26.8334C21.1262 26.8334 21.249 26.7924 21.35 26.7167C24.5933 24.2842 26.25 22.0069 26.25 19.8334ZM19.25 19.8334C19.25 19.3692 19.4344 18.9241 19.7626 18.5959C20.0908 18.2677 20.5359 18.0834 21 18.0834C21.4641 18.0834 21.9092 18.2677 22.2374 18.5959C22.5656 18.9241 22.75 19.3692 22.75 19.8334C22.75 20.2975 22.5656 20.7426 22.2374 21.0708C21.9092 21.399 21.4641 21.5834 21 21.5834C20.5359 21.5834 20.0908 21.399 19.7626 21.0708C19.4344 20.7426 19.25 20.2975 19.25 19.8334Z" fill="#00AA13"/>
</svg>
