<svg width="126" height="126" viewBox="0 0 126 126" fill="none" xmlns="http://www.w3.org/2000/svg">
<g clip-path="url(#clip0_392_455)">
<path fill-rule="evenodd" clip-rule="evenodd" d="M51.1875 74.8125L23.625 59.0625V11.8125C23.625 8.67963 24.8695 5.67507 27.0848 3.4598C29.3001 1.24453 32.3046 0 35.4375 0L90.5625 0C93.6954 0 96.6999 1.24453 98.9152 3.4598C101.13 5.67507 102.375 8.67963 102.375 11.8125V59.0625L74.8125 74.8125L63 68.9062L51.1875 74.8125ZM8.33963 28.6256L15.75 24.6724V54.2273L7.87806e-08 44.9899V42.525C-0.000285442 39.6699 0.775536 36.8684 2.24449 34.4201C3.71344 31.9719 5.82026 29.969 8.33963 28.6256V28.6256ZM126 44.9899L110.25 54.2273V24.6724L117.66 28.6256C120.18 29.969 122.287 31.9719 123.756 34.4201C125.224 36.8684 126 39.6699 126 42.525V44.9899ZM126 54.1249L81.1676 80.4038L126 105.304V54.117V54.1249ZM63 79.317L125.535 114.062C124.685 117.472 122.718 120.499 119.948 122.663C117.178 124.826 113.765 126.001 110.25 126H15.75C12.2354 126.001 8.82155 124.826 6.0517 122.663C3.28184 120.499 1.31515 117.472 0.464625 114.062L63 79.317ZM7.87806e-08 105.304L44.8324 80.4038L7.87806e-08 54.1249V105.312V105.304Z" fill="white"/>
</g>
<defs>
<clipPath id="clip0_392_455">
<rect width="126" height="126" fill="white"/>
</clipPath>
</defs>
</svg>
