<svg width="12" height="13" viewBox="0 0 12 13" fill="none" xmlns="http://www.w3.org/2000/svg">
<path d="M7.8125 2.08333H10.9375C11.0756 2.08333 11.2081 2.13821 11.3058 2.23588C11.4035 2.33356 11.4583 2.46603 11.4583 2.60417C11.4583 2.7423 11.4035 2.87478 11.3058 2.97245C11.2081 3.07013 11.0756 3.125 10.9375 3.125H10.3615L9.57812 10.1833C9.50736 10.8204 9.20417 11.4089 8.72657 11.8363C8.24897 12.2638 7.63052 12.5001 6.98958 12.5H4.46875C3.82781 12.5001 3.20936 12.2638 2.73176 11.8363C2.25416 11.4089 1.95097 10.8204 1.88021 10.1833L1.09583 3.125H0.520833C0.3827 3.125 0.250224 3.07013 0.152549 2.97245C0.0548735 2.87478 0 2.7423 0 2.60417C0 2.46603 0.0548735 2.33356 0.152549 2.23588C0.250224 2.13821 0.3827 2.08333 0.520833 2.08333H3.64583C3.64583 1.5308 3.86533 1.00089 4.25603 0.610194C4.64673 0.219493 5.17663 0 5.72917 0C6.2817 0 6.8116 0.219493 7.20231 0.610194C7.59301 1.00089 7.8125 1.5308 7.8125 2.08333V2.08333ZM5.72917 1.04167C5.4529 1.04167 5.18795 1.15141 4.9926 1.34676C4.79725 1.54211 4.6875 1.80707 4.6875 2.08333H6.77083C6.77083 1.80707 6.66109 1.54211 6.46574 1.34676C6.27039 1.15141 6.00543 1.04167 5.72917 1.04167V1.04167ZM4.16667 5.20833V9.375C4.16667 9.51313 4.22154 9.64561 4.31922 9.74328C4.41689 9.84096 4.54937 9.89583 4.6875 9.89583C4.82563 9.89583 4.95811 9.84096 5.05578 9.74328C5.15346 9.64561 5.20833 9.51313 5.20833 9.375V5.20833C5.20833 5.0702 5.15346 4.93772 5.05578 4.84005C4.95811 4.74237 4.82563 4.6875 4.6875 4.6875C4.54937 4.6875 4.41689 4.74237 4.31922 4.84005C4.22154 4.93772 4.16667 5.0702 4.16667 5.20833ZM6.77083 4.6875C6.6327 4.6875 6.50022 4.74237 6.40255 4.84005C6.30487 4.93772 6.25 5.0702 6.25 5.20833V9.375C6.25 9.51313 6.30487 9.64561 6.40255 9.74328C6.50022 9.84096 6.6327 9.89583 6.77083 9.89583C6.90897 9.89583 7.04144 9.84096 7.13912 9.74328C7.23679 9.64561 7.29167 9.51313 7.29167 9.375V5.20833C7.29167 5.0702 7.23679 4.93772 7.13912 4.84005C7.04144 4.74237 6.90897 4.6875 6.77083 4.6875Z" fill="white"/>
</svg>
