<svg width="24" height="24" viewBox="0 0 24 24" fill="none" xmlns="http://www.w3.org/2000/svg">
<path d="M11.9999 2.40002C12.1283 2.40002 12.2567 2.40482 12.3839 2.41562C11.5229 3.0249 10.8207 3.8319 10.3363 4.76883C9.85183 5.70576 9.5993 6.74526 9.5999 7.80002C9.5999 9.38042 10.1555 10.8312 11.0819 11.9676L10.1999 12.8484V14.88C10.1999 15.071 10.124 15.2541 9.98902 15.3891C9.85399 15.5242 9.67086 15.6 9.4799 15.6H7.1999V17.28C7.1999 17.471 7.12405 17.6541 6.98902 17.7891C6.85399 17.9242 6.67086 18 6.4799 18H3.1199C2.92895 18 2.74581 17.9242 2.61079 17.7891C2.47576 17.6541 2.3999 17.471 2.3999 17.28V13.8492C2.40007 13.6583 2.47604 13.4753 2.6111 13.3404L7.3943 8.55722C7.18324 7.84122 7.14208 7.08586 7.27409 6.35117C7.4061 5.61647 7.70764 4.92268 8.15475 4.32494C8.60186 3.7272 9.18222 3.24197 9.84972 2.90782C10.5172 2.57367 11.2534 2.3998 11.9999 2.40002V2.40002ZM10.7999 7.80002C10.8 6.86712 11.0417 5.95014 11.5016 5.13846C11.9615 4.32678 12.6238 3.64809 13.424 3.16853C14.2242 2.68897 15.135 2.4249 16.0677 2.40206C17.0003 2.37921 17.9229 2.59837 18.7457 3.03818C19.5684 3.47799 20.2632 4.12344 20.7622 4.91163C21.2613 5.69982 21.5477 6.60386 21.5934 7.53564C21.6392 8.46743 21.4427 9.39517 21.0233 10.2285C20.6038 11.0617 19.9756 11.7721 19.1999 12.2904V14.7504L20.1395 15.6912C20.2743 15.8262 20.3501 16.0092 20.3501 16.2C20.3501 16.3908 20.2743 16.5738 20.1395 16.7088L18.8483 18L20.1299 19.2804C20.2015 19.3521 20.2572 19.438 20.2933 19.5327C20.3294 19.6273 20.3452 19.7285 20.3395 19.8296C20.3338 19.9308 20.3069 20.0296 20.2604 20.1196C20.214 20.2096 20.1491 20.2888 20.0699 20.352L17.2499 22.608C17.1222 22.7103 16.9635 22.766 16.7999 22.766C16.6363 22.766 16.4776 22.7103 16.3499 22.608L13.4699 20.304C13.3857 20.2366 13.3177 20.1512 13.271 20.0539C13.2243 19.9567 13.2 19.8503 13.1999 19.7424V12.2904C12.4611 11.7973 11.8556 11.1295 11.4369 10.3461C11.0182 9.56281 10.7994 8.68822 10.7999 7.80002V7.80002ZM17.0999 6.60002C17.0999 6.36133 17.0051 6.13241 16.8363 5.96363C16.6675 5.79485 16.4386 5.70002 16.1999 5.70002C15.9612 5.70002 15.7323 5.79485 15.5635 5.96363C15.3947 6.13241 15.2999 6.36133 15.2999 6.60002C15.2999 6.83872 15.3947 7.06764 15.5635 7.23642C15.7323 7.4052 15.9612 7.50002 16.1999 7.50002C16.4386 7.50002 16.6675 7.4052 16.8363 7.23642C17.0051 7.06764 17.0999 6.83872 17.0999 6.60002Z" fill="black"/>
</svg>
