<svg width="20" height="20" viewBox="0 0 20 20" fill="none" xmlns="http://www.w3.org/2000/svg">
    <path d="M12.6498 13.5337L17.6823 18.5675C17.7404 18.6256 17.8094 18.6717 17.8853 18.7032C17.9613 18.7346 18.0426 18.7508 18.1248 18.7508C18.207 18.7508 18.2884 18.7346 18.3643 18.7032C18.4402 18.6717 18.5092 18.6256 18.5673 18.5675C18.6254 18.5094 18.6715 18.4404 18.703 18.3645C18.7344 18.2886 18.7506 18.2072 18.7506 18.125C18.7506 18.0428 18.7344 17.9614 18.703 17.8855C18.6715 17.8096 18.6254 17.7406 18.5673 17.6825L2.31731 1.4325C2.2592 1.37439 2.19022 1.32829 2.11429 1.29684C2.03837 1.26539 1.95699 1.24921 1.87481 1.24921C1.79263 1.24921 1.71126 1.26539 1.63533 1.29684C1.55941 1.32829 1.49042 1.37439 1.43231 1.4325C1.3742 1.49061 1.32811 1.55959 1.29666 1.63552C1.26521 1.71144 1.24902 1.79282 1.24902 1.875C1.24902 1.95718 1.26521 2.03855 1.29666 2.11448C1.32811 2.1904 1.3742 2.25939 1.43231 2.3175L5.46981 6.355C4.92029 6.74427 4.42583 7.20594 3.99981 7.7275C3.39656 8.46769 2.92434 9.3056 2.60356 10.205C2.57731 10.2812 2.54481 10.3862 2.54481 10.3862L2.52231 10.4637C2.52231 10.4637 2.42731 11.085 2.96606 11.2275C3.12618 11.2698 3.29655 11.2469 3.43976 11.1637C3.58296 11.0805 3.68728 10.9438 3.72981 10.7837L3.73106 10.78L3.74106 10.7487L3.78481 10.6125C4.05726 9.85315 4.45669 9.14559 4.96606 8.52C5.3665 8.02782 5.84039 7.6003 6.37106 7.2525L8.34356 9.225C7.94552 9.47448 7.60884 9.81049 7.35857 10.208C7.1083 10.6056 6.95088 11.0545 6.89802 11.5212C6.84516 11.988 6.89822 12.4607 7.05325 12.9042C7.20828 13.3476 7.46129 13.7504 7.79347 14.0826C8.12564 14.4148 8.52843 14.6678 8.97189 14.8228C9.41534 14.9778 9.88803 15.0309 10.3548 14.978C10.8216 14.9252 11.2705 14.7678 11.668 14.5175C12.0656 14.2672 12.4016 13.9305 12.6511 13.5325L12.6498 13.5337ZM7.89981 5.24875L8.96731 6.31625C9.30968 6.27177 9.65457 6.24964 9.99981 6.25C12.5548 6.25 14.1073 7.39 15.0348 8.52125C15.5443 9.14677 15.9437 9.85435 16.2161 10.6137C16.2373 10.6737 16.2511 10.72 16.2598 10.75L16.2698 10.7812V10.785L16.2711 10.7862C16.3173 10.9422 16.4226 11.0741 16.5645 11.1537C16.7064 11.2333 16.8737 11.2544 17.031 11.2126C17.1882 11.1707 17.3229 11.0692 17.4065 10.9296C17.4901 10.79 17.5159 10.6234 17.4786 10.465V10.4612L17.4773 10.4562L17.4723 10.44C17.4507 10.361 17.4256 10.2831 17.3973 10.2062C17.0765 9.30686 16.6043 8.46894 16.0011 7.72875C14.8811 6.36 12.9948 5 10.0023 5C9.22981 5 8.53106 5.09 7.90106 5.24875H7.89981Z" fill="black"/>
</svg>
