<svg width="20" height="20" viewBox="0 0 20 20" fill="none" xmlns="http://www.w3.org/2000/svg">
<path d="M3.29014 11.0983C3.21554 11.302 3.06445 11.4686 2.86899 11.5626C2.67353 11.6567 2.4491 11.6708 2.24338 11.602C2.03766 11.5332 1.86687 11.387 1.7673 11.1942C1.66773 11.0015 1.64723 10.7776 1.71014 10.57C1.69348 10.62 1.71014 10.5683 1.71014 10.5683C1.73978 10.4766 1.77427 10.3864 1.81348 10.2983C1.88014 10.14 1.97848 9.92167 2.11348 9.66333C2.38848 9.14667 2.81681 8.45833 3.44848 7.77C4.72348 6.37833 6.81181 5 10.0001 5C13.1885 5 15.2768 6.37833 16.5518 7.77C17.2324 8.51663 17.7843 9.37101 18.1851 10.2983L18.2618 10.4867C18.2668 10.5 18.2835 10.5867 18.3001 10.67L18.3335 10.8333C18.3335 10.8333 18.4735 11.3883 17.7635 11.6233C17.5544 11.6932 17.3261 11.6773 17.1287 11.5792C16.9313 11.4811 16.7808 11.3088 16.7101 11.1V11.095L16.7001 11.0683C16.6164 10.8542 16.5207 10.645 16.4135 10.4417C16.1171 9.88253 15.7509 9.36336 15.3235 8.89667C14.3068 7.78833 12.6451 6.66667 10.0001 6.66667C7.35514 6.66667 5.69348 7.78833 4.67681 8.89667C4.12638 9.50012 3.67876 10.1898 3.35181 10.9383C3.33432 10.9813 3.31766 11.0247 3.30181 11.0683L3.29014 11.0983ZM6.66681 11.6667C6.66681 10.7826 7.018 9.93476 7.64312 9.30964C8.26824 8.68452 9.11609 8.33333 10.0001 8.33333C10.8842 8.33333 11.732 8.68452 12.3572 9.30964C12.9823 9.93476 13.3335 10.7826 13.3335 11.6667C13.3335 12.5507 12.9823 13.3986 12.3572 14.0237C11.732 14.6488 10.8842 15 10.0001 15C9.11609 15 8.26824 14.6488 7.64312 14.0237C7.018 13.3986 6.66681 12.5507 6.66681 11.6667Z" fill="black"/>
</svg>
