<svg width="20" height="21" viewBox="0 0 20 21" fill="none" xmlns="http://www.w3.org/2000/svg">
<path d="M19.9905 10.6965C19.9905 9.83611 19.9224 9.20827 19.7752 8.55719H10.1992V12.4404H15.8201C15.7068 13.4055 15.0948 14.8588 13.7349 15.8354L13.7159 15.9654L16.7436 18.3718L16.9534 18.3933C18.8798 16.5679 19.9905 13.8821 19.9905 10.6965" fill="#4285F4"/>
<path d="M10.1992 20.9278C12.953 20.9278 15.2648 19.9977 16.9534 18.3932L13.7349 15.8353C12.8737 16.4516 11.7177 16.8817 10.1992 16.8817C7.50211 16.8817 5.21297 15.0564 4.39695 12.5334L4.27734 12.5439L1.12906 15.0436L1.08789 15.161C2.76508 18.5792 6.21016 20.9278 10.1992 20.9278Z" fill="#34A853"/>
<path d="M4.39695 12.5334C4.18164 11.8824 4.05703 11.1847 4.05703 10.4639C4.05703 9.74301 4.18164 9.04544 4.38562 8.39436L4.37992 8.2557L1.19219 5.71582L1.08789 5.76672C0.396641 7.18518 0 8.77805 0 10.4639C0 12.1498 0.396641 13.7425 1.08789 15.161L4.39695 12.5334" fill="#FBBC05"/>
<path d="M10.1992 4.04603C12.1144 4.04603 13.4063 4.89476 14.1429 5.60403L17.0213 2.72062C15.2535 1.03477 12.953 0 10.1992 0C6.21016 0 2.76508 2.34855 1.08789 5.76674L4.38563 8.39439C5.21297 5.87142 7.50211 4.04603 10.1992 4.04603" fill="#EB4335"/>
</svg>
