<svg width="24" height="24" viewBox="0 0 24 24" fill="none" xmlns="http://www.w3.org/2000/svg">
<path d="M15.5002 2.04999C13.7634 2.05105 12.098 2.74148 10.8698 3.96961C9.64171 5.19774 8.95128 6.86315 8.95022 8.59999C8.95022 8.98699 9.00022 9.35999 9.06022 9.70399C9.06901 9.74729 9.06724 9.79207 9.05506 9.83455C9.04287 9.87702 9.02063 9.91593 8.99022 9.94799L2.75522 16.184C2.23943 16.6995 1.94951 17.3988 1.94922 18.128V20.3C1.94922 21.266 2.73322 22.05 3.69922 22.05H6.19922C6.66335 22.05 7.10847 21.8656 7.43666 21.5374C7.76484 21.2092 7.94922 20.7641 7.94922 20.3V19.05H9.70022C10.3902 19.05 10.9502 18.49 10.9502 17.8V16.05H11.2812C11.3842 15.891 11.5112 15.75 11.6592 15.633L10.0142 13.987C9.6863 13.6588 9.50209 13.2139 9.50209 12.75C9.50209 12.2861 9.6863 11.8411 10.0142 11.513L12.0142 9.51299C12.2741 9.25337 12.6091 9.08212 12.9717 9.0235C13.3344 8.96487 13.7062 9.02185 14.0347 9.18635C14.3631 9.35085 14.6315 9.61453 14.8017 9.94004C14.972 10.2656 15.0355 10.6364 14.9832 11H17.0002C18.3832 10.9998 19.7238 11.4774 20.7952 12.352C21.6118 11.2338 22.051 9.8846 22.0492 8.49999C22.0492 4.86899 19.0962 2.04999 15.4992 2.04999H15.5002ZM17.0002 5.74999C17.3317 5.74999 17.6497 5.88168 17.8841 6.1161C18.1185 6.35052 18.2502 6.66847 18.2502 6.99999C18.2502 7.33151 18.1185 7.64945 17.8841 7.88387C17.6497 8.11829 17.3317 8.24999 17.0002 8.24999C16.6687 8.24999 16.3508 8.11829 16.1163 7.88387C15.8819 7.64945 15.7502 7.33151 15.7502 6.99999C15.7502 6.66847 15.8819 6.35052 16.1163 6.1161C16.3508 5.88168 16.6687 5.74999 17.0002 5.74999V5.74999ZM13.7802 11.28C13.8539 11.2113 13.913 11.1285 13.954 11.0365C13.995 10.9445 14.017 10.8452 14.0188 10.7445C14.0206 10.6438 14.0021 10.5438 13.9643 10.4504C13.9266 10.357 13.8705 10.2722 13.7993 10.2009C13.728 10.1297 13.6432 10.0736 13.5498 10.0359C13.4564 9.99814 13.3564 9.97962 13.2557 9.9814C13.155 9.98317 13.0557 10.0052 12.9637 10.0462C12.8717 10.0872 12.7889 10.1463 12.7202 10.22L10.7202 12.22C10.5798 12.3606 10.5009 12.5512 10.5009 12.75C10.5009 12.9487 10.5798 13.1394 10.7202 13.28L12.7202 15.28C12.7889 15.3537 12.8717 15.4128 12.9637 15.4538C13.0557 15.4948 13.155 15.5168 13.2557 15.5186C13.3564 15.5204 13.4564 15.5018 13.5498 15.4641C13.6432 15.4264 13.728 15.3702 13.7993 15.299C13.8705 15.2278 13.9266 15.143 13.9643 15.0496C14.0021 14.9562 14.0206 14.8562 14.0188 14.7555C14.017 14.6548 13.995 14.5554 13.954 14.4634C13.913 14.3715 13.8539 14.2886 13.7802 14.22L13.0602 13.5H17.0002C17.6925 13.5 18.3691 13.7053 18.9447 14.0898C19.5203 14.4744 19.9689 15.0211 20.2338 15.6606C20.4987 16.3001 20.568 17.0039 20.433 17.6828C20.2979 18.3617 19.9646 18.9854 19.4751 19.4749C18.9856 19.9643 18.362 20.2977 17.683 20.4327C17.0041 20.5678 16.3004 20.4985 15.6608 20.2336C15.0213 19.9687 14.4747 19.5201 14.0901 18.9445C13.7055 18.3689 13.5002 17.6922 13.5002 17C13.5002 16.8011 13.4212 16.6103 13.2805 16.4697C13.1399 16.329 12.9491 16.25 12.7502 16.25C12.5513 16.25 12.3605 16.329 12.2199 16.4697C12.0792 16.6103 12.0002 16.8011 12.0002 17C12.0002 17.9889 12.2935 18.9556 12.8429 19.7778C13.3923 20.6001 14.1732 21.2409 15.0868 21.6194C16.0004 21.9978 17.0058 22.0968 17.9757 21.9039C18.9456 21.711 19.8365 21.2348 20.5358 20.5355C21.235 19.8363 21.7112 18.9453 21.9041 17.9754C22.0971 17.0055 21.9981 16.0002 21.6196 15.0866C21.2412 14.1729 20.6003 13.392 19.7781 12.8426C18.9558 12.2932 17.9891 12 17.0002 12H13.0602L13.7802 11.28V11.28Z" fill="black"/>
</svg>
