<svg width="24" height="24" viewBox="0 0 24 24" fill="none" xmlns="http://www.w3.org/2000/svg">
<path d="M14.3697 1.57791C13.2447 1.26441 12.3657 2.10291 12.0522 2.88441C11.6922 3.78441 11.3727 4.41591 10.9932 5.17041C10.7193 5.71177 10.4528 6.25682 10.1937 6.80541C9.48117 8.32041 8.77167 9.28941 8.25417 9.87291C8.06605 10.0879 7.86305 10.2894 7.64667 10.4759C7.59755 10.5181 7.54702 10.5586 7.49517 10.5974L7.47117 10.6154L4.66317 12.2699C4.05528 12.6285 3.59329 13.19 3.35844 13.8556C3.1236 14.5211 3.13094 15.2482 3.37917 15.9089L4.15917 17.9849C4.31932 18.4114 4.5745 18.7958 4.90535 19.109C5.23621 19.4222 5.63404 19.6559 6.06867 19.7924L14.1027 22.3154C14.5781 22.4648 15.0785 22.5179 15.5747 22.4717C16.0708 22.4255 16.5528 22.2809 16.9925 22.0462C17.4321 21.8116 17.8205 21.4917 18.1351 21.1053C18.4497 20.7188 18.6841 20.2735 18.8247 19.7954L20.8707 12.8249C21.0019 12.3775 21.0271 11.9057 20.9442 11.4469C20.8612 10.9881 20.6725 10.5549 20.393 10.1818C20.1135 9.80861 19.7508 9.50575 19.3338 9.29721C18.9168 9.08868 18.4569 8.98021 17.9907 8.98041H15.9147C16.0137 8.63991 16.1142 8.26191 16.2072 7.87041C16.4037 7.02741 16.5717 6.06591 16.5552 5.26341C16.5417 4.51791 16.4652 3.73491 16.1592 3.07041C15.8307 2.35791 15.2562 1.82241 14.3712 1.57641L14.3697 1.57791ZM7.46667 10.6199L7.46367 10.6214L7.46667 10.6199Z" fill="#00AA13"/>
</svg>
