<svg width="78" height="79" viewBox="0 0 78 79" fill="none" xmlns="http://www.w3.org/2000/svg">
<path fill-rule="evenodd" clip-rule="evenodd" d="M19.6952 16.7422C24.8152 11.6222 31.7594 8.74585 39.0002 8.74585C46.241 8.74585 53.1852 11.6222 58.3052 16.7422C63.4252 21.8622 66.3016 28.8065 66.3016 36.0472C66.3016 43.288 63.4252 50.2322 58.3052 55.3522L39.0002 74.6572L19.6952 55.3522C17.1599 52.8172 15.1487 49.8075 13.7766 46.4951C12.4045 43.1828 11.6982 39.6326 11.6982 36.0472C11.6982 32.4619 12.4045 28.9117 13.7766 25.5993C15.1487 22.287 17.1599 19.2773 19.6952 16.7422V16.7422ZM39.0002 43.8472C41.0689 43.8472 43.0529 43.0255 44.5156 41.5627C45.9784 40.0999 46.8002 38.1159 46.8002 36.0472C46.8002 33.9786 45.9784 31.9946 44.5156 30.5318C43.0529 29.069 41.0689 28.2472 39.0002 28.2472C36.9315 28.2472 34.9476 29.069 33.4848 30.5318C32.022 31.9946 31.2002 33.9786 31.2002 36.0472C31.2002 38.1159 32.022 40.0999 33.4848 41.5627C34.9476 43.0255 36.9315 43.8472 39.0002 43.8472Z" fill="white"/>
</svg>
