<svg width="20" height="20" viewBox="0 0 20 20" fill="none" xmlns="http://www.w3.org/2000/svg">
<path d="M0.0296676 6.9216C0.484702 5.57963 1.23238 4.34487 2.22349 3.29859C2.30545 3.21215 2.41247 3.1509 2.53097 3.12263C2.64947 3.09436 2.7741 3.10033 2.88904 3.13979L5.25294 3.94673C5.42123 4.00409 5.60057 4.02583 5.77854 4.01045C5.95651 3.99508 6.12884 3.94295 6.2836 3.85768C6.43836 3.77242 6.57184 3.65605 6.67479 3.51666C6.77774 3.37726 6.84771 3.21816 6.87983 3.05039L7.33092 0.690735C7.3527 0.575868 7.40981 0.469787 7.49497 0.385997C7.58013 0.302206 7.68949 0.244497 7.80912 0.220215C9.25342 -0.0734051 10.7463 -0.0734051 12.1906 0.220215C12.31 0.244704 12.4191 0.302505 12.504 0.38628C12.589 0.470055 12.6459 0.576024 12.6676 0.690735L13.1199 3.05039C13.152 3.21816 13.222 3.37726 13.3249 3.51666C13.4279 3.65605 13.5614 3.77242 13.7161 3.85768C13.8709 3.94295 14.0432 3.99508 14.2212 4.01045C14.3992 4.02583 14.5785 4.00409 14.7468 3.94673L17.1107 3.13979C17.2258 3.10047 17.3505 3.09468 17.469 3.12317C17.5875 3.15165 17.6944 3.21312 17.7762 3.29977C18.7672 4.3457 19.5149 5.58005 19.9701 6.9216C20.0076 7.03241 20.0099 7.15137 19.9765 7.26341C19.9432 7.37545 19.8757 7.47551 19.7827 7.55092L17.8662 9.10363C17.7301 9.21406 17.6207 9.35142 17.5457 9.50619C17.4707 9.66096 17.4319 9.82945 17.4319 9.99997C17.4319 10.1705 17.4707 10.339 17.5457 10.4938C17.6207 10.6485 17.7301 10.7859 17.8662 10.8963L19.7827 12.449C19.8757 12.5244 19.9432 12.6245 19.9765 12.7365C20.0099 12.8486 20.0076 12.9675 19.9701 13.0784C19.515 14.4203 18.7674 15.6551 17.7762 16.7014C17.6943 16.7878 17.5873 16.849 17.4688 16.8773C17.3503 16.9056 17.2256 16.8996 17.1107 16.8602L14.7468 16.0532C14.5785 15.9959 14.3992 15.9741 14.2212 15.9895C14.0432 16.0049 13.8709 16.057 13.7161 16.1423C13.5614 16.2275 13.4279 16.3439 13.3249 16.4833C13.222 16.6227 13.152 16.7818 13.1199 16.9496L12.6676 19.3104C12.6457 19.4249 12.5886 19.5306 12.5037 19.6141C12.4188 19.6977 12.3099 19.7553 12.1906 19.7797C10.7463 20.0734 9.25341 20.0734 7.80912 19.7797C7.68949 19.7554 7.58013 19.6977 7.49497 19.614C7.40981 19.5302 7.3527 19.4241 7.33092 19.3092L6.88106 16.9496C6.84894 16.7818 6.77898 16.6227 6.67602 16.4833C6.57307 16.3439 6.43959 16.2275 6.28483 16.1423C6.13007 16.057 5.95774 16.0049 5.77977 15.9895C5.60181 15.9741 5.42246 15.9959 5.25418 16.0532L2.88904 16.8602C2.77398 16.8995 2.64928 16.9053 2.53077 16.8768C2.41226 16.8483 2.30531 16.7868 2.22349 16.7002C1.2325 15.6543 0.484826 14.4199 0.0296676 13.0784C-0.00776205 12.9674 -0.00982079 12.8484 0.0237525 12.7363C0.0573257 12.6243 0.125017 12.5243 0.218238 12.449L2.13352 10.8963C2.26967 10.7859 2.37903 10.6485 2.45403 10.4938C2.52903 10.339 2.56788 10.1705 2.56788 9.99997C2.56788 9.82945 2.52903 9.66096 2.45403 9.50619C2.37903 9.35142 2.26967 9.21406 2.13352 9.10363L0.218238 7.55092C0.125017 7.47565 0.0573257 7.37565 0.0237525 7.26361C-0.00982079 7.15156 -0.00776205 7.03252 0.0296676 6.9216V6.9216ZM7.53551 9.99997C7.53551 10.6239 7.79521 11.2223 8.25748 11.6635C8.71976 12.1047 9.34673 12.3526 10.0005 12.3526C10.6542 12.3526 11.2812 12.1047 11.7435 11.6635C12.2058 11.2223 12.4655 10.6239 12.4655 9.99997C12.4655 9.37603 12.2058 8.77763 11.7435 8.33644C11.2812 7.89524 10.6542 7.64737 10.0005 7.64737C9.34673 7.64737 8.71976 7.89524 8.25748 8.33644C7.79521 8.77763 7.53551 9.37603 7.53551 9.99997V9.99997Z" fill="white"/>
</svg>
