<svg width="30" height="30" viewBox="0 0 30 30" fill="none" xmlns="http://www.w3.org/2000/svg">
<path d="M21.2502 3.7525C21.8685 3.75262 22.4772 3.90572 23.022 4.19818C23.5668 4.49063 24.0307 4.91335 24.3725 5.42863C24.7143 5.94392 24.9232 6.53576 24.9807 7.15141C25.0383 7.76705 24.9425 8.38736 24.7021 8.95704C24.4617 9.52671 24.0841 10.0281 23.6029 10.4164C23.1217 10.8047 22.5519 11.0679 21.9443 11.1825C21.3367 11.2972 20.7102 11.2597 20.1206 11.0734C19.531 10.8872 18.9966 10.5579 18.5652 10.115L11.7439 14.015C11.9196 14.6603 11.9196 15.3409 11.7439 15.9863L18.5664 19.885C19.2031 19.2322 20.0561 18.8339 20.9654 18.7648C21.8747 18.6957 22.778 18.9606 23.506 19.5098C24.234 20.0589 24.7368 20.8547 24.9202 21.748C25.1036 22.6414 24.9549 23.5709 24.5021 24.3624C24.0492 25.154 23.3233 25.7533 22.4603 26.048C21.5973 26.3427 20.6564 26.3126 19.814 25.9633C18.9716 25.6141 18.2855 24.9696 17.8841 24.1508C17.4828 23.3319 17.3939 22.3948 17.6339 21.515L10.8127 17.615C10.2926 18.1489 9.62505 18.5156 8.89548 18.6681C8.1659 18.8207 7.4074 18.7523 6.71692 18.4715C6.02645 18.1908 5.43537 17.7106 5.01925 17.0922C4.60313 16.4738 4.38086 15.7454 4.38086 15C4.38086 14.2546 4.60313 13.5262 5.01925 12.9078C5.43537 12.2894 6.02645 11.8092 6.71692 11.5285C7.4074 11.2477 8.1659 11.1793 8.89548 11.3319C9.62505 11.4844 10.2926 11.8511 10.8127 12.385L17.6339 8.485C17.4832 7.92919 17.4626 7.34614 17.5736 6.78106C17.6845 6.21598 17.9242 5.68405 18.2739 5.22651C18.6236 4.76898 19.074 4.39813 19.5901 4.14273C20.1063 3.88733 20.6743 3.75423 21.2502 3.75375V3.7525Z" fill="#00AED6"/>
</svg>
