<svg width="30" height="30" viewBox="0 0 30 30" fill="none" xmlns="http://www.w3.org/2000/svg">
<path d="M0 11.8783L14.4795 20.275C14.6402 20.3682 14.8188 20.4168 15 20.4168C15.1812 20.4168 15.3598 20.3682 15.5205 20.275L30 11.88V24.5833C30.0001 25.9669 29.5237 27.298 28.6685 28.3037C27.8133 29.3094 26.6442 29.9133 25.401 29.9917L25.125 30H4.875C3.62979 30.0001 2.43176 29.4707 1.52665 28.5205C0.62155 27.5703 0.077998 26.2713 0.00750017 24.89L0 24.5833V11.8783V11.8783ZM1.65 8.61495L14.4255 0.174938C14.574 0.0770287 14.7409 0.0184334 14.9131 0.00369319C15.0853 -0.011047 15.2582 0.0184634 15.4185 0.0899381L15.5745 0.174938L28.35 8.61662C28.7025 8.84996 29.0085 9.14829 29.2575 9.49329L15 17.7583L0.7425 9.49162C0.931275 9.23026 1.15073 8.99819 1.395 8.80162L1.65 8.61495L14.4255 0.174938L1.65 8.61662V8.61495Z" fill="white"/>
</svg>
