<svg width="30" height="28" viewBox="0 0 30 28" fill="none" xmlns="http://www.w3.org/2000/svg">
<path d="M30 8.10526C30 10.2549 29.1722 12.3165 27.6987 13.8366C26.2252 15.3566 24.2267 16.2105 22.1429 16.2105C20.059 16.2105 18.0605 15.3566 16.587 13.8366C15.1135 12.3165 14.2857 10.2549 14.2857 8.10526C14.2857 5.95561 15.1135 3.89401 16.587 2.37398C18.0605 0.853945 20.059 0 22.1429 0C24.2267 0 26.2252 0.853945 27.6987 2.37398C29.1722 3.89401 30 5.95561 30 8.10526V8.10526ZM21.4286 5.46295V12.5263C21.4286 12.7217 21.5038 12.9092 21.6378 13.0473C21.7717 13.1855 21.9534 13.2632 22.1429 13.2632C22.3323 13.2632 22.514 13.1855 22.6479 13.0473C22.7819 12.9092 22.8571 12.7217 22.8571 12.5263V5.46295L25.2086 7.89011C25.3427 8.02846 25.5246 8.10619 25.7143 8.10619C25.904 8.10619 26.0859 8.02846 26.22 7.89011C26.3541 7.75175 26.4295 7.56409 26.4295 7.36842C26.4295 7.17275 26.3541 6.9851 26.22 6.84674L22.6486 3.16253C22.5822 3.09391 22.5034 3.03946 22.4166 3.00232C22.3298 2.96517 22.2368 2.94605 22.1429 2.94605C22.0489 2.94605 21.9559 2.96517 21.8691 3.00232C21.7823 3.03946 21.7035 3.09391 21.6371 3.16253L18.0657 6.84674C17.9993 6.91525 17.9466 6.99658 17.9107 7.08609C17.8747 7.1756 17.8562 7.27154 17.8562 7.36842C17.8562 7.46531 17.8747 7.56124 17.9107 7.65075C17.9466 7.74027 17.9993 7.8216 18.0657 7.89011C18.1998 8.02846 18.3817 8.10619 18.5714 8.10619C18.6653 8.10619 18.7583 8.08711 18.8451 8.05003C18.9319 8.01296 19.0107 7.95861 19.0771 7.89011L21.4286 5.46295ZM22.1429 17.6842C24.5397 17.6874 26.8443 16.7312 28.5714 15.0168V23.2105C28.5715 24.4339 28.1178 25.6109 27.3033 26.5001C26.4889 27.3894 25.3754 27.9234 24.1914 27.9926L23.9286 28H4.64286C3.45695 28.0001 2.31596 27.532 1.45396 26.6919C0.591953 25.8517 0.0742838 24.7031 0.00714302 23.4817L0 23.2105V11.2118L13.7886 18.6627C13.942 18.7456 14.1126 18.7889 14.2857 18.7889C14.4589 18.7889 14.6295 18.7456 14.7829 18.6627L18.2357 16.7971C19.4598 17.3832 20.7933 17.686 22.1429 17.6842V17.6842ZM4.64286 4.42105H13.5686C13.0973 5.58841 12.8554 6.84071 12.8571 8.10526C12.8571 11.0423 14.1386 13.6699 16.1543 15.4265L14.2857 16.436L0.0228572 8.72863C0.133924 7.59462 0.633388 6.53864 1.4315 5.75044C2.22961 4.96224 3.27405 4.49349 4.37714 4.42842L4.64286 4.42105Z" fill="#00AA13"/>
</svg>
