<svg width="24" height="24" viewBox="0 0 24 24" fill="none" xmlns="http://www.w3.org/2000/svg">
<path d="M14.4059 20.1564L9.5999 17.4864V3.88799L14.3999 7.24799L14.4059 20.1564ZM15.6059 20.136L21.3083 16.7148C21.3972 16.6615 21.4709 16.5861 21.522 16.4958C21.5731 16.4056 21.5999 16.3037 21.5999 16.2V4.19999C21.6 4.09014 21.57 3.98237 21.5131 3.88841C21.4562 3.79446 21.3745 3.71794 21.2771 3.66718C21.1797 3.61643 21.0702 3.5934 20.9606 3.60059C20.851 3.60779 20.7455 3.64494 20.6555 3.70799L15.5999 7.24799L15.6059 20.136ZM2.6555 7.90799L8.3999 3.88799V17.4864L3.2915 20.3244C3.20017 20.3752 3.09715 20.4012 2.99266 20.4C2.88816 20.3987 2.7858 20.3702 2.69572 20.3172C2.60564 20.2642 2.53096 20.1886 2.47908 20.0979C2.42719 20.0072 2.3999 19.9045 2.3999 19.8V8.39999C2.39979 8.30347 2.42297 8.20835 2.46747 8.1227C2.51196 8.03705 2.57647 7.96339 2.6555 7.90799Z" fill="white"/>
</svg>
