<svg width="28" height="28" viewBox="0 0 28 28" fill="none" xmlns="http://www.w3.org/2000/svg">
<path d="M13.2535 2.14902C13.1247 2.07856 12.9803 2.04163 12.8335 2.04163C12.6867 2.04163 12.5423 2.07856 12.4135 2.14902L3.30183 7.11902C3.10949 7.22401 2.93727 7.36226 2.79316 7.52735L12.8335 13.0025L22.8738 7.52502C22.7296 7.36036 22.5574 7.22252 22.3652 7.11785L13.2535 2.14785V2.14902ZM2.3335 18.375V9.26918L12.4135 14.7677C12.5423 14.8381 12.6867 14.8751 12.8335 14.8751C12.9803 14.8751 13.1247 14.8381 13.2535 14.7677L23.3335 9.26918V18.375C23.3335 19.3806 22.934 20.3451 22.2229 21.0561C21.5119 21.7672 20.5474 22.1667 19.5418 22.1667H6.12516C5.11955 22.1667 4.15513 21.7672 3.44405 21.0561C2.73297 20.3451 2.3335 19.3806 2.3335 18.375V18.375ZM24.5013 8.76285C25.0381 9.10547 25.4798 9.57787 25.7857 10.1364C26.0916 10.6949 26.2517 11.3216 26.2513 11.9583V18.9583C26.2513 20.5828 25.606 22.1407 24.4574 23.2894C23.3087 24.438 21.7508 25.0833 20.1263 25.0833H9.62633C8.98914 25.0841 8.36204 24.9242 7.80307 24.6183C7.2441 24.3124 6.77133 23.8705 6.4285 23.3333H20.1252C21.2855 23.3333 22.3983 22.8724 23.2188 22.0519C24.0392 21.2315 24.5002 20.1187 24.5002 18.9583V8.76285H24.5013Z" fill="white"/>
</svg>
