<svg width="25" height="23" viewBox="0 0 25 23" fill="none" xmlns="http://www.w3.org/2000/svg">
<path d="M2.25 0C1.65326 0 1.08097 0.237053 0.65901 0.65901C0.237053 1.08097 0 1.65326 0 2.25V8.25C0 8.84674 0.237053 9.41903 0.65901 9.84099C1.08097 10.2629 1.65326 10.5 2.25 10.5H15.75C16.3467 10.5 16.919 10.2629 17.341 9.84099C17.7629 9.41903 18 8.84674 18 8.25V2.25C18 1.65326 17.7629 1.08097 17.341 0.65901C16.919 0.237053 16.3467 0 15.75 0H2.25ZM2.25 12C1.65326 12 1.08097 12.2371 0.65901 12.659C0.237053 13.081 0 13.6533 0 14.25V20.25C0 20.8467 0.237053 21.419 0.65901 21.841C1.08097 22.2629 1.65326 22.5 2.25 22.5H15.75C16.3467 22.5 16.919 22.2629 17.341 21.841C17.7629 21.419 18 20.8467 18 20.25V14.25C18 13.6533 17.7629 13.081 17.341 12.659C16.919 12.2371 16.3467 12 15.75 12H2.25ZM22.5 14.1555C22.0567 14.2691 21.5933 14.2798 21.1452 14.187C20.6971 14.0942 20.2761 13.9003 19.9143 13.62C19.5526 13.3397 19.2596 12.9805 19.0578 12.5698C18.8561 12.159 18.7508 11.7076 18.75 11.25C18.7498 10.5848 18.9708 9.93837 19.3781 9.41242C19.7854 8.88647 20.3559 8.5108 21 8.3445C21.492 8.21781 22.008 8.21781 22.5 8.3445C23.1446 8.51025 23.7159 8.88567 24.1237 9.41168C24.5316 9.93768 24.753 10.5844 24.753 11.25C24.753 11.9156 24.5316 12.5623 24.1237 13.0883C23.7159 13.6143 23.1446 13.9898 22.5 14.1555V14.1555ZM21.75 0C21.9489 0 22.1397 0.0790178 22.2803 0.21967C22.421 0.360322 22.5 0.551088 22.5 0.75V6.8115C22.0035 6.72814 21.4965 6.72814 21 6.8115V0.75C21 0.551088 21.079 0.360322 21.2197 0.21967C21.3603 0.0790178 21.5511 0 21.75 0V0ZM21.75 15.75C21.495 15.75 21.2445 15.729 21 15.6885V21.75C21 21.9489 21.079 22.1397 21.2197 22.2803C21.3603 22.421 21.5511 22.5 21.75 22.5C21.9489 22.5 22.1397 22.421 22.2803 22.2803C22.421 22.1397 22.5 21.9489 22.5 21.75V15.6885C22.2555 15.729 22.005 15.75 21.75 15.75Z" fill="white"/>
</svg>
