<svg width="24" height="24" viewBox="0 0 24 24" fill="none" xmlns="http://www.w3.org/2000/svg">
<path d="M15.0556 14.1831C15.5156 15.6101 15.7486 16.8591 15.7486 17.9361C15.7486 20.3341 14.8096 22.1831 13.2486 22.1831C12.4486 22.1831 12.1706 21.7331 11.8656 20.6371L11.5956 19.6151C11.4956 19.2571 11.3196 18.6451 11.0696 17.7851C11.0629 17.7617 11.0528 17.7395 11.0396 17.7191L8.17362 13.2341C7.49545 12.1729 6.49476 11.3573 5.31862 10.9071L4.06162 10.4261C3.67722 10.2789 3.35701 10.0009 3.15729 9.64092C2.95757 9.28098 2.89112 8.86216 2.96962 8.45808L3.65562 4.92008C3.73729 4.4978 3.93828 4.10777 4.23479 3.79619C4.5313 3.48462 4.9109 3.26456 5.32862 3.16208L13.5786 1.14108C14.7947 0.843161 16.0792 1.03742 17.1528 1.68162C18.2264 2.32582 19.0023 3.36785 19.3116 4.58108L20.8856 10.7531C20.9893 11.1591 20.9987 11.5835 20.9133 11.9938C20.8278 12.4041 20.6497 12.7894 20.3926 13.1203C20.1355 13.4513 19.8061 13.719 19.4297 13.9032C19.0533 14.0874 18.6397 14.1831 18.2206 14.1831H15.0556V14.1831Z" fill="#DB4437"/>
</svg>
