<svg width="14" height="13" viewBox="0 0 14 13" fill="none" xmlns="http://www.w3.org/2000/svg">
<path d="M13.1747 2.7413V4.98375C12.7618 4.8545 12.3208 4.83972 11.9 4.94102C11.4791 5.04233 11.0946 5.25582 10.7884 5.55817L6.81131 9.48244C6.50579 9.78402 6.28013 10.1551 6.15423 10.563H2.05855C1.51259 10.563 0.988986 10.349 0.602934 9.96812C0.216882 9.58719 0 9.07055 0 8.53184V2.7413L6.37902 6.44458C6.44229 6.4813 6.51435 6.50067 6.58776 6.50067C6.66116 6.50067 6.73322 6.4813 6.79649 6.44458L13.1747 2.7413ZM11.1161 0.000812433C11.6227 0.000733828 12.1114 0.184926 12.489 0.51815C12.8665 0.851375 13.1062 1.31024 13.1623 1.80695L6.58734 5.62235L0.0123514 1.80695C0.0682855 1.31009 0.307955 0.851032 0.685487 0.51764C1.06302 0.184249 1.5519 -5.6359e-05 2.05855 1.29277e-08H11.1161V0.000812433ZM7.39429 10.0561L11.3714 6.13178C11.5145 5.99073 11.6843 5.87886 11.8712 5.80256C12.058 5.72627 12.2583 5.68704 12.4605 5.68711C12.6628 5.68719 12.863 5.72657 13.0498 5.803C13.2367 5.87944 13.4064 5.99143 13.5493 6.13259C13.6923 6.27375 13.8057 6.44131 13.883 6.6257C13.9603 6.81009 14.0001 7.00771 14 7.20726C13.9999 7.40682 13.96 7.6044 13.8825 7.78874C13.8051 7.97307 13.6916 8.14055 13.5485 8.2816L9.57141 12.2051C9.33973 12.4338 9.04943 12.5961 8.73153 12.6747L7.49804 12.9785C7.3754 13.0087 7.24692 13.007 7.12512 12.9737C7.00331 12.9404 6.8923 12.8766 6.80288 12.7884C6.71346 12.7003 6.64866 12.5908 6.61479 12.4707C6.58092 12.3505 6.57913 12.2237 6.60958 12.1027L6.91836 10.8856C6.99734 10.5717 7.16193 10.285 7.39429 10.0569V10.0561Z" fill="white"/>
</svg>
