<svg width="72" height="73" viewBox="0 0 72 73" fill="none" xmlns="http://www.w3.org/2000/svg">
<path fill-rule="evenodd" clip-rule="evenodd" d="M36 65.7472C43.6382 65.7472 50.9636 62.7129 56.3646 57.3119C61.7657 51.9108 64.7999 44.5855 64.7999 36.9472C64.7999 29.309 61.7657 21.9836 56.3646 16.5825C50.9636 11.1815 43.6382 8.14722 36 8.14722C28.3617 8.14722 21.0363 11.1815 15.6353 16.5825C10.2342 21.9836 7.19995 29.309 7.19995 36.9472C7.19995 44.5855 10.2342 51.9108 15.6353 57.3119C21.0363 62.7129 28.3617 65.7472 36 65.7472V65.7472ZM49.3451 34.402L38.5451 23.602C37.87 22.9271 36.9545 22.548 36 22.548C35.0454 22.548 34.1299 22.9271 33.4548 23.602L22.6548 34.402C21.999 35.081 21.6361 35.9904 21.6443 36.9343C21.6525 37.8782 22.0311 38.7811 22.6986 39.4486C23.3661 40.116 24.269 40.4946 25.2129 40.5028C26.1568 40.511 27.0662 40.1482 27.7451 39.4924L32.4 34.8376V47.7472C32.4 48.702 32.7792 49.6177 33.4544 50.2928C34.1295 50.9679 35.0452 51.3472 36 51.3472C36.9547 51.3472 37.8704 50.9679 38.5455 50.2928C39.2207 49.6177 39.6 48.702 39.6 47.7472V34.8376L44.2548 39.4924C44.9337 40.1482 45.8431 40.511 46.787 40.5028C47.7309 40.4946 48.6338 40.116 49.3013 39.4486C49.9688 38.7811 50.3474 37.8782 50.3556 36.9343C50.3638 35.9904 50.0009 35.081 49.3451 34.402V34.402Z" fill="white"/>
</svg>
