<svg width="20" height="20" viewBox="0 0 20 20" fill="none" xmlns="http://www.w3.org/2000/svg">
<path d="M14.375 10C14.8723 10 15.3492 10.1975 15.7008 10.5492C16.0525 10.9008 16.25 11.3777 16.25 11.875H10V13.125H16.2C16.1338 13.55 15.9988 13.9725 15.8 14.375H10V15.625H14.9112C13.8412 16.7288 12.1637 17.5 10 17.5C6.075 17.5 3.75 14.9637 3.75 12.5V11.875C3.75 11.3777 3.94754 10.9008 4.29917 10.5492C4.65081 10.1975 5.12772 10 5.625 10H14.375ZM13.3812 4.6875C13.457 5.10072 13.457 5.52428 13.3812 5.9375H10V7.1875H12.8813C12.4771 7.80858 11.883 8.28243 11.1876 8.5384C10.4922 8.79437 9.73264 8.81878 9.02224 8.60797C8.31183 8.39716 7.68856 7.96243 7.24533 7.36857C6.8021 6.77471 6.56264 6.05353 6.56264 5.3125C6.56264 4.57147 6.8021 3.85029 7.24533 3.25643C7.68856 2.66257 8.31183 2.22784 9.02224 2.01703C9.73264 1.80622 10.4922 1.83063 11.1876 2.0866C11.883 2.34257 12.4771 2.81642 12.8813 3.4375H10V4.6875H13.3812Z" fill="black"/>
</svg>
