<svg width="17" height="74" viewBox="0 0 17 74" fill="none" xmlns="http://www.w3.org/2000/svg">
<path d="M0.801311 8.27628C0.783543 7.254 0.969548 6.23841 1.34847 5.28878C1.7274 4.33915 2.29165 3.4745 3.00832 2.74527C3.72498 2.01604 4.5797 1.43684 5.52261 1.04147C6.46551 0.646096 7.47771 0.442472 8.50015 0.442472C9.52258 0.442472 10.5348 0.646099 11.4777 1.04147C12.4206 1.43684 13.2753 2.01603 13.992 2.74526C14.7086 3.47449 15.2729 4.33915 15.6518 5.28878C16.0307 6.23841 16.2168 7.254 16.199 8.27628L16.199 12.5939L0.801311 12.5939L0.801311 8.27628ZM0.80131 20.2928L0.801309 65.9141L8.50015 73.6129L16.199 65.9141L16.2017 20.2901L0.798588 20.2955L0.80131 20.2928Z" fill="white"/>
</svg>
