<svg width="30" height="30" viewBox="0 0 30 30" fill="none" xmlns="http://www.w3.org/2000/svg">
<path d="M10.6275 14.375C10.9597 14.375 11.2783 14.507 11.5132 14.7418C11.748 14.9767 11.88 15.2953 11.88 15.6275C11.88 15.9597 11.748 16.2783 11.5132 16.5131C11.2783 16.748 10.9597 16.88 10.6275 16.88C10.2952 16.88 9.97641 16.748 9.74141 16.513C9.5064 16.278 9.37437 15.9592 9.37437 15.6269C9.37437 15.2945 9.5064 14.9758 9.74141 14.7408C9.97641 14.5058 10.2952 14.3737 10.6275 14.3737V14.375ZM15 5.44124V13.755H24.3025L22.15 11.6C21.9909 11.4412 21.8942 11.2305 21.8774 11.0063C21.8607 10.7822 21.925 10.5594 22.0587 10.3787L22.15 10.2737C22.3089 10.1152 22.5194 10.0189 22.7433 10.0023C22.9672 9.98582 23.1896 10.0502 23.37 10.1837L23.475 10.2737L27.2213 14.0212C27.38 14.18 27.4766 14.3904 27.4933 14.6143C27.51 14.8382 27.4459 15.0607 27.3125 15.2412L27.2213 15.3462L23.4763 19.1C23.309 19.2666 23.085 19.364 22.849 19.3726C22.6131 19.3812 22.3825 19.3005 22.2035 19.1466C22.0245 18.9927 21.9101 18.7768 21.8833 18.5423C21.8564 18.3077 21.9191 18.0716 22.0587 17.8812L22.1487 17.7762L24.29 15.63H15.0013L15 24.0625C14.9999 24.1993 14.9698 24.3344 14.9119 24.4584C14.8541 24.5823 14.7697 24.6921 14.6649 24.78C14.5601 24.8679 14.4373 24.9318 14.3052 24.9672C14.173 25.0026 14.0347 25.0087 13.9 24.985L3.275 23.1087C3.0578 23.0705 2.86103 22.9569 2.71929 22.788C2.57754 22.619 2.4999 22.4055 2.5 22.185V7.18749C2.5 6.96529 2.57893 6.75031 2.72271 6.5809C2.86648 6.41148 3.06576 6.29864 3.285 6.26249L13.91 4.51749C14.0442 4.49537 14.1816 4.50271 14.3127 4.53901C14.4438 4.57531 14.5654 4.63969 14.6691 4.7277C14.7728 4.81571 14.8561 4.92523 14.9133 5.04866C14.9704 5.17209 15 5.30648 15 5.44249V5.44124ZM13.125 6.54499L4.375 7.98249V21.3975L13.125 22.9425V6.54624V6.54499ZM16.25 23.125H17.2063L17.3337 23.1162C17.5584 23.0854 17.7643 22.9742 17.9132 22.8032C18.0621 22.6322 18.144 22.413 18.1438 22.1862L18.135 16.8737H16.25V23.1237V23.125ZM16.2525 12.5L16.25 10.9062V6.24999H17.1812C17.4076 6.24996 17.6263 6.33183 17.797 6.48048C17.9678 6.62913 18.0789 6.83453 18.11 7.05874L18.1187 7.18499L18.1275 12.5H16.2525V12.5Z" fill="black"/>
</svg>
