<svg width="24" height="24" viewBox="0 0 24 24" fill="none" xmlns="http://www.w3.org/2000/svg">
<path d="M12.0522 2.88457C12.3672 2.10457 13.2447 1.26457 14.3712 1.57807C15.2562 1.82407 15.8307 2.35807 16.1607 3.07207C16.4667 3.73657 16.5417 4.51957 16.5567 5.26507C16.5717 6.06757 16.4037 7.02907 16.2072 7.87207C16.1194 8.24458 16.0219 8.6147 15.9147 8.98207H17.9922C18.4583 8.9821 18.918 9.09074 19.3348 9.29938C19.7516 9.50801 20.1141 9.8109 20.3934 10.184C20.6728 10.5571 20.8614 10.9902 20.9442 11.4489C21.0271 11.9076 21.0019 12.3793 20.8707 12.8266L18.8247 19.7956C18.6843 20.2738 18.45 20.7193 18.1355 21.1059C17.821 21.4925 17.4325 21.8126 16.9929 22.0473C16.5532 22.2821 16.0712 22.4269 15.5749 22.4732C15.0787 22.5195 14.5782 22.4664 14.1027 22.3171L6.06867 19.7941C5.63404 19.6576 5.23621 19.4238 4.90535 19.1107C4.5745 18.7975 4.31932 18.4131 4.15917 17.9866L3.37917 15.9106C3.13094 15.2499 3.1236 14.5228 3.35844 13.8572C3.59329 13.1917 4.05528 12.6302 4.66317 12.2716L7.47117 10.6156C7.75413 10.3918 8.01666 10.1433 8.25567 9.87307C8.77167 9.28957 9.48117 8.31907 10.1937 6.80557C10.5012 6.15157 10.7592 5.63707 10.9932 5.17057C11.3727 4.41607 11.6907 3.78457 12.0522 2.88457ZM8.27817 11.8801C8.26977 11.8852 8.26126 11.8902 8.25267 11.8951L5.42517 13.5631C5.12122 13.7424 4.89023 14.0231 4.77281 14.3559C4.65538 14.6887 4.65905 15.0522 4.78317 15.3826L5.56317 17.4586C5.64323 17.672 5.77089 17.8644 5.93646 18.0212C6.10202 18.1779 6.30114 18.2948 6.51867 18.3631L14.5497 20.8861C14.835 20.976 15.1354 21.0081 15.4334 20.9805C15.7313 20.9529 16.0207 20.8662 16.2847 20.7254C16.5486 20.5846 16.7819 20.3926 16.9708 20.1605C17.1597 19.9285 17.3004 19.6611 17.3847 19.3741L19.4292 12.4051C19.4949 12.1813 19.5076 11.9453 19.4662 11.7158C19.4248 11.4863 19.3305 11.2696 19.1907 11.083C19.0509 10.8963 18.8696 10.7448 18.661 10.6405C18.4524 10.5362 18.2224 10.4819 17.9892 10.4821H14.8902C14.7702 10.482 14.6519 10.4531 14.5454 10.3979C14.4389 10.3427 14.3472 10.2627 14.2779 10.1647C14.2087 10.0667 14.164 9.95348 14.1476 9.83461C14.1312 9.71574 14.1436 9.59468 14.1837 9.48157C14.3337 9.05857 14.5617 8.32507 14.7477 7.52857C14.9367 6.72157 15.0702 5.90557 15.0582 5.29357C15.0432 4.59157 14.9697 4.06957 14.7987 3.70057C14.6517 3.37807 14.4222 3.14857 13.9707 3.02257C13.9062 3.00457 13.8297 3.01057 13.7307 3.07507C13.6014 3.16735 13.5023 3.29571 13.4457 3.44407C13.1001 4.28621 12.7173 5.11253 12.2982 5.92057C12.0657 6.38407 11.8212 6.87157 11.5527 7.44307C10.7817 9.08407 9.99267 10.1761 9.37767 10.8676C9.07167 11.2126 8.81067 11.4571 8.61867 11.6206C8.52116 11.7035 8.42006 11.782 8.31567 11.8561L8.29167 11.8711L8.28417 11.8771L8.27967 11.8801H8.27817ZM7.46367 10.6201L7.46217 10.6216L7.46367 10.6201Z" fill="black"/>
</svg>
