<svg width="20" height="20" viewBox="0 0 20 20" fill="none" xmlns="http://www.w3.org/2000/svg">
<path d="M2.5 4.375C2.5 4.20924 2.56585 4.05027 2.68306 3.93306C2.80027 3.81585 2.95924 3.75 3.125 3.75H16.875C17.0408 3.75 17.1997 3.81585 17.3169 3.93306C17.4342 4.05027 17.5 4.20924 17.5 4.375C17.5 4.54076 17.4342 4.69973 17.3169 4.81694C17.1997 4.93415 17.0408 5 16.875 5H3.125C2.95924 5 2.80027 4.93415 2.68306 4.81694C2.56585 4.69973 2.5 4.54076 2.5 4.375ZM2.5 9.375C2.5 9.20924 2.56585 9.05027 2.68306 8.93306C2.80027 8.81585 2.95924 8.75 3.125 8.75H16.875C17.0408 8.75 17.1997 8.81585 17.3169 8.93306C17.4342 9.05027 17.5 9.20924 17.5 9.375C17.5 9.54076 17.4342 9.69973 17.3169 9.81694C17.1997 9.93415 17.0408 10 16.875 10H3.125C2.95924 10 2.80027 9.93415 2.68306 9.81694C2.56585 9.69973 2.5 9.54076 2.5 9.375ZM2.5 14.375C2.5 14.2092 2.56585 14.0503 2.68306 13.9331C2.80027 13.8158 2.95924 13.75 3.125 13.75H16.875C17.0408 13.75 17.1997 13.8158 17.3169 13.9331C17.4342 14.0503 17.5 14.2092 17.5 14.375C17.5 14.5408 17.4342 14.6997 17.3169 14.8169C17.1997 14.9342 17.0408 15 16.875 15H3.125C2.95924 15 2.80027 14.9342 2.68306 14.8169C2.56585 14.6997 2.5 14.5408 2.5 14.375Z" fill="black"/>
</svg>
