<svg width="24" height="24" viewBox="0 0 24 24" fill="none" xmlns="http://www.w3.org/2000/svg">
    <path d="M13.1251 15.375C13.1251 15.6733 13.0065 15.9595 12.7956 16.1705C12.5846 16.3814 12.2984 16.5 12.0001 16.5C11.7017 16.5 11.4155 16.3814 11.2046 16.1705C10.9936 15.9595 10.8751 15.6733 10.8751 15.375C10.8751 15.0766 10.9936 14.7904 11.2046 14.5795C11.4155 14.3685 11.7017 14.25 12.0001 14.25C12.2984 14.25 12.5846 14.3685 12.7956 14.5795C13.0065 14.7904 13.1251 15.0766 13.1251 15.375ZM11.2501 12C11.2501 12.1989 11.3291 12.3896 11.4697 12.5303C11.6104 12.6709 11.8011 12.75 12.0001 12.75C12.199 12.75 12.3897 12.6709 12.5304 12.5303C12.671 12.3896 12.7501 12.1989 12.7501 12V8.24996C12.7501 8.05105 12.671 7.86028 12.5304 7.71963C12.3897 7.57898 12.199 7.49996 12.0001 7.49996C11.8011 7.49996 11.6104 7.57898 11.4697 7.71963C11.3291 7.86028 11.2501 8.05105 11.2501 8.24996V12ZM10.3636 3.95546C10.5263 3.66439 10.7638 3.422 11.0514 3.25327C11.3391 3.08455 11.6666 2.99561 12.0001 2.99561C12.3336 2.99561 12.661 3.08455 12.9487 3.25327C13.2363 3.422 13.4738 3.66439 13.6366 3.95546L20.7616 16.7085C20.921 16.9937 21.0032 17.3157 20.9999 17.6425C20.9966 17.9693 20.9079 18.2895 20.7427 18.5715C20.5774 18.8534 20.3414 19.0873 20.0579 19.2499C19.7744 19.4125 19.4534 19.4982 19.1266 19.4985H4.86906C4.54213 19.4984 4.22088 19.4129 3.9372 19.2505C3.65351 19.088 3.41724 18.8541 3.25183 18.5721C3.08642 18.2901 2.99762 17.9698 2.99424 17.6428C2.99086 17.3159 3.07302 16.9938 3.23256 16.7085L10.3621 3.95546H10.3636ZM12.3271 4.68746C12.2946 4.62903 12.2471 4.58034 12.1894 4.54645C12.1318 4.51255 12.0662 4.49468 11.9993 4.49468C11.9325 4.49468 11.8668 4.51255 11.8092 4.54645C11.7516 4.58034 11.704 4.62903 11.6716 4.68746L4.54506 17.4405C4.51316 17.4975 4.49673 17.5619 4.49739 17.6273C4.49806 17.6926 4.51579 17.7567 4.54884 17.8131C4.58188 17.8695 4.6291 17.9162 4.68579 17.9487C4.74249 17.9813 4.8067 17.9984 4.87206 17.9985H19.1266C19.1919 17.9984 19.2561 17.9813 19.3128 17.9487C19.3695 17.9162 19.4167 17.8695 19.4498 17.8131C19.4828 17.7567 19.5006 17.6926 19.5012 17.6273C19.5019 17.5619 19.4855 17.4975 19.4536 17.4405L12.3286 4.68746H12.3271Z" fill="black"/>
</svg>
