<svg width="20" height="20" viewBox="0 0 20 20" fill="none" xmlns="http://www.w3.org/2000/svg">
<path d="M8.3334 1.66669C7.27237 1.66657 6.22665 1.91971 5.28314 2.40505C4.33964 2.8904 3.5256 3.59393 2.90869 4.45717C2.29179 5.32042 1.88983 6.31844 1.73624 7.36829C1.58264 8.41813 1.68185 9.48947 2.02561 10.4933C2.36936 11.4971 2.94774 12.4043 3.71267 13.1396C4.4776 13.8749 5.40698 14.417 6.42356 14.7208C7.44014 15.0247 8.51457 15.0815 9.55753 14.8865C10.6005 14.6916 11.5819 14.2505 12.4201 13.6L16.9101 18.0884C16.9869 18.1679 17.0789 18.2314 17.1806 18.2751C17.2822 18.3188 17.3916 18.3418 17.5022 18.3427C17.6129 18.3437 17.7226 18.3226 17.825 18.2807C17.9274 18.2388 18.0205 18.1769 18.0987 18.0987C18.177 18.0204 18.2388 17.9274 18.2807 17.825C18.3226 17.7226 18.3437 17.6128 18.3428 17.5022C18.3418 17.3915 18.3188 17.2822 18.2751 17.1805C18.2315 17.0788 18.168 16.9869 18.0884 16.91L13.6001 12.4217C14.3651 11.4362 14.8384 10.2559 14.9659 9.01482C15.0934 7.77378 14.8701 6.52185 14.3215 5.40139C13.7728 4.28094 12.9207 3.33693 11.8621 2.67671C10.8036 2.01649 9.58098 1.66655 8.3334 1.66669V1.66669ZM3.3334 8.33335C3.3334 7.00727 3.86018 5.7355 4.79786 4.79782C5.73554 3.86014 7.00731 3.33335 8.3334 3.33335C9.65948 3.33335 10.9312 3.86014 11.8689 4.79782C12.8066 5.7355 13.3334 7.00727 13.3334 8.33335C13.3334 9.65944 12.8066 10.9312 11.8689 11.8689C10.9312 12.8066 9.65948 13.3334 8.3334 13.3334C7.00731 13.3334 5.73554 12.8066 4.79786 11.8689C3.86018 10.9312 3.3334 9.65944 3.3334 8.33335V8.33335Z" fill="black"/>
</svg>
