<svg width="30" height="30" viewBox="0 0 30 30" fill="none" xmlns="http://www.w3.org/2000/svg">
<path d="M14.9999 11.25C14.0054 11.25 13.0516 11.6451 12.3483 12.3484C11.645 13.0516 11.2499 14.0055 11.2499 15C11.2499 15.9946 11.645 16.9484 12.3483 17.6517C13.0516 18.3549 14.0054 18.75 14.9999 18.75C15.9945 18.75 16.9483 18.3549 17.6516 17.6517C18.3549 16.9484 18.7499 15.9946 18.7499 15C18.7499 14.0055 18.3549 13.0516 17.6516 12.3484C16.9483 11.6451 15.9945 11.25 14.9999 11.25V11.25ZM13.1249 15C13.1249 14.5027 13.3225 14.0258 13.6741 13.6742C14.0257 13.3226 14.5027 13.125 14.9999 13.125C15.4972 13.125 15.9741 13.3226 16.3258 13.6742C16.6774 14.0258 16.8749 14.5027 16.8749 15C16.8749 15.4973 16.6774 15.9742 16.3258 16.3258C15.9741 16.6775 15.4972 16.875 14.9999 16.875C14.5027 16.875 14.0257 16.6775 13.6741 16.3258C13.3225 15.9742 13.1249 15.4973 13.1249 15V15ZM19.9087 8.24626C19.5629 8.30979 19.206 8.23353 18.9163 8.03422C18.6267 7.8349 18.4279 7.52882 18.3637 7.18314L17.8762 4.52814C17.8523 4.39884 17.7905 4.27956 17.6987 4.18543C17.6069 4.09129 17.4892 4.02654 17.3606 3.99939C15.8035 3.66923 14.1945 3.66923 12.6374 3.99939C12.5088 4.02654 12.3911 4.09129 12.2993 4.18543C12.2075 4.27956 12.1457 4.39884 12.1218 4.52814L11.6362 7.18314C11.6007 7.37224 11.5247 7.5514 11.4134 7.70829C11.302 7.86518 11.158 7.99607 10.9912 8.09195C10.8244 8.18782 10.6388 8.2464 10.4471 8.26366C10.2555 8.28091 10.0624 8.25643 9.88119 8.19189L7.33307 7.28439C7.20943 7.24011 7.07545 7.23339 6.94799 7.26509C6.82054 7.29678 6.70532 7.36547 6.61682 7.46251C5.54886 8.63806 4.74237 10.0267 4.25057 11.5369C4.20999 11.6618 4.20758 11.7959 4.24366 11.9222C4.27973 12.0484 4.35264 12.161 4.45307 12.2456L6.51932 13.9913C6.66613 14.1152 6.78413 14.2696 6.86507 14.4439C6.94602 14.6181 6.98795 14.8079 6.98795 15C6.98795 15.1921 6.94602 15.3819 6.86507 15.5562C6.78413 15.7304 6.66613 15.8849 6.51932 16.0088L4.45307 17.7544C4.35264 17.839 4.27973 17.9516 4.24366 18.0779C4.20758 18.2041 4.20999 18.3383 4.25057 18.4631C4.74271 19.9735 5.54988 21.3623 6.61869 22.5375C6.70719 22.6346 6.82242 22.7032 6.94987 22.7349C7.07732 22.7666 7.2113 22.7599 7.33494 22.7156L9.88494 21.8081C10.0662 21.7429 10.2594 21.7179 10.4512 21.7349C10.6431 21.7518 10.8289 21.8103 10.9959 21.9063C11.1629 22.0023 11.307 22.1335 11.4182 22.2907C11.5294 22.4479 11.6051 22.6275 11.6399 22.8169L12.1237 25.4719C12.1724 25.7344 12.3768 25.9444 12.6393 25.9988C14.197 26.329 15.8066 26.329 17.3643 25.9988C17.4925 25.9716 17.6097 25.9071 17.7012 25.8133C17.7926 25.7195 17.8542 25.6007 17.8781 25.4719L18.3656 22.8169C18.401 22.6278 18.4771 22.4486 18.5884 22.2917C18.6998 22.1348 18.8438 22.004 19.0106 21.9081C19.1774 21.8122 19.363 21.7536 19.5546 21.7364C19.7462 21.7191 19.9393 21.7436 20.1206 21.8081L22.6687 22.7156C22.9218 22.8056 23.2049 22.7344 23.3849 22.5375C24.4529 21.362 25.2594 19.9733 25.7512 18.4631C25.7918 18.3383 25.7942 18.2041 25.7581 18.0779C25.722 17.9516 25.6491 17.839 25.5487 17.7544L23.4824 16.0088C23.3353 15.885 23.2171 15.7306 23.1359 15.5564C23.0548 15.3821 23.0128 15.1922 23.0128 15C23.0128 14.8078 23.0548 14.6179 23.1359 14.4437C23.2171 14.2694 23.3353 14.115 23.4824 13.9913L25.5487 12.2456C25.6491 12.161 25.722 12.0484 25.7581 11.9222C25.7942 11.7959 25.7918 11.6618 25.7512 11.5369C25.2585 10.0263 24.4507 8.63754 23.3812 7.46251C23.2927 7.36547 23.1775 7.29678 23.05 7.26509C22.9226 7.23339 22.7886 7.24011 22.6649 7.28439L20.1149 8.19189C20.0472 8.21624 19.9776 8.23505 19.9068 8.24814L19.9087 8.24626ZM7.49619 9.33376L9.25307 9.95814C9.69022 10.1138 10.1559 10.1727 10.6181 10.1307C11.0802 10.0888 11.5277 9.94707 11.9297 9.71531C12.3318 9.48356 12.6787 9.1673 12.9465 8.78839C13.2144 8.40947 13.3968 7.97693 13.4812 7.52064L13.8131 5.70189C14.6006 5.60355 15.3974 5.60355 16.1849 5.70189L16.5187 7.52064C16.6025 7.97725 16.7845 8.41017 17.0523 8.78944C17.32 9.1687 17.6669 9.48522 18.0691 9.71708C18.4713 9.94893 18.9191 10.0906 19.3814 10.1322C19.8438 10.1738 20.3097 10.1144 20.7468 9.95814L22.4999 9.33189C22.9781 9.95814 23.3756 10.6406 23.6812 11.3644L22.2674 12.5588C21.9122 12.8587 21.6267 13.2325 21.4309 13.6542C21.235 14.0758 21.1336 14.5351 21.1336 15C21.1336 15.4649 21.235 15.9242 21.4309 16.3459C21.6267 16.7675 21.9122 17.1413 22.2674 17.4413L23.6831 18.6356C23.3763 19.3601 22.9795 20.043 22.5018 20.6681L20.7449 20.0419C20.3078 19.8863 19.8421 19.8274 19.3799 19.8693C18.9178 19.9112 18.4703 20.053 18.0683 20.2847C17.6663 20.5165 17.3193 20.8327 17.0515 21.2116C16.7836 21.5906 16.6012 22.0231 16.5168 22.4794L16.1831 24.2981C15.3955 24.3966 14.5988 24.3966 13.8112 24.2981L13.4793 22.4794C13.3955 22.0228 13.2135 21.5899 12.9458 21.2106C12.678 20.8313 12.3311 20.5148 11.9289 20.283C11.5267 20.0511 11.0789 19.9094 10.6166 19.8678C10.1542 19.8262 9.68832 19.8856 9.25119 20.0419L7.49994 20.6681C7.02226 20.043 6.62537 19.3601 6.31869 18.6356L7.73244 17.4394C8.08735 17.1395 8.37256 16.7657 8.5682 16.3443C8.76384 15.9228 8.86519 15.4637 8.86519 14.9991C8.86519 14.5344 8.76384 14.0753 8.5682 13.6539C8.37256 13.2324 8.08735 12.8587 7.73244 12.5588L6.31682 11.3644C6.62478 10.6405 7.02158 9.9578 7.49807 9.33189L7.49619 9.33376Z" fill="black"/>
</svg>
