<svg width="24" height="24" viewBox="0 0 24 24" fill="none" xmlns="http://www.w3.org/2000/svg">
<path d="M14.3996 6.60245C14.3996 5.89211 14.6514 5.20477 15.1103 4.66257C15.5692 4.12038 16.2055 3.75845 16.9061 3.64111C17.6066 3.52377 18.3261 3.65862 18.9367 4.02169C19.5472 4.38477 20.0092 4.95255 20.2406 5.62413C20.472 6.29571 20.4579 7.02759 20.2006 7.68969C19.9433 8.3518 19.4596 8.90124 18.8355 9.24038C18.2113 9.57951 17.4871 9.68637 16.7916 9.54196C16.0961 9.39755 15.4744 9.01123 15.0368 8.45165L9.49763 11.2212C9.63432 11.731 9.63432 12.2679 9.49763 12.7776L15.0392 15.5496C15.4985 14.965 16.1585 14.5718 16.8912 14.4461C17.624 14.3204 18.3773 14.4713 19.0051 14.8695C19.6329 15.2677 20.0905 15.8848 20.2892 16.6012C20.4879 17.3177 20.4135 18.0823 20.0804 18.747C19.7473 19.4116 19.1793 19.9289 18.4865 20.1986C17.7937 20.4683 17.0254 20.4711 16.3307 20.2065C15.6359 19.9419 15.0641 19.4288 14.7262 18.7666C14.3882 18.1044 14.3082 17.3403 14.5016 16.6224L8.96003 13.8504C8.57484 14.3415 8.04609 14.7002 7.44744 14.8766C6.84879 15.0529 6.21003 15.0382 5.62013 14.8344C5.03024 14.6307 4.51858 14.248 4.15641 13.7398C3.79425 13.2315 3.59961 12.6229 3.59961 11.9988C3.59961 11.3748 3.79425 10.7662 4.15641 10.2579C4.51858 9.74967 5.03024 9.36701 5.62013 9.16325C6.21003 8.95948 6.84879 8.94477 7.44744 9.12114C8.04609 9.29752 8.57484 9.65621 8.96003 10.1472L14.5004 7.37885C14.4331 7.12555 14.3992 6.86453 14.3996 6.60245V6.60245ZM17.402 4.80005C16.9242 4.80005 16.4659 4.98988 16.128 5.32778C15.7901 5.66569 15.6002 6.12398 15.6002 6.60185C15.6002 7.07971 15.7901 7.53801 16.128 7.87591C16.4659 8.21382 16.9242 8.40365 17.402 8.40365C17.8799 8.40365 18.3382 8.21382 18.6761 7.87591C19.014 7.53801 19.2038 7.07971 19.2038 6.60185C19.2038 6.12398 19.014 5.66569 18.6761 5.32778C18.3382 4.98988 17.8799 4.80005 17.402 4.80005V4.80005ZM17.3996 15.6C16.9222 15.6 16.4644 15.7897 16.1268 16.1273C15.7893 16.4648 15.5996 16.9227 15.5996 17.4C15.5996 17.8774 15.7893 18.3353 16.1268 18.6728C16.4644 19.0104 16.9222 19.2 17.3996 19.2C17.877 19.2 18.3349 19.0104 18.6724 18.6728C19.01 18.3353 19.1996 17.8774 19.1996 17.4C19.1996 16.9227 19.01 16.4648 18.6724 16.1273C18.3349 15.7897 17.877 15.6 17.3996 15.6ZM4.79963 12C4.79963 12.2364 4.84619 12.4705 4.93664 12.6889C5.0271 12.9073 5.15969 13.1057 5.32684 13.2728C5.49398 13.44 5.69241 13.5726 5.9108 13.663C6.12918 13.7535 6.36325 13.8 6.59963 13.8C6.83601 13.8 7.07007 13.7535 7.28846 13.663C7.50684 13.5726 7.70528 13.44 7.87242 13.2728C8.03957 13.1057 8.17215 12.9073 8.26261 12.6889C8.35307 12.4705 8.39963 12.2364 8.39963 12C8.39963 11.5227 8.20999 11.0648 7.87242 10.7273C7.53486 10.3897 7.07702 10.2 6.59963 10.2C6.12224 10.2 5.6644 10.3897 5.32684 10.7273C4.98927 11.0648 4.79963 11.5227 4.79963 12V12Z" fill="black"/>
</svg>
