<svg width="28" height="28" viewBox="0 0 28 28" fill="none" xmlns="http://www.w3.org/2000/svg">
<path d="M12.7844 0.130499C12.6336 0.044877 12.4645 0 12.2927 0C12.1208 0 11.9517 0.044877 11.801 0.130499L1.13366 6.16998C0.434341 6.56694 0 7.32542 0 8.15195V19.8481C0 21.0701 0.467681 22.2421 1.30016 23.1062C2.13264 23.9703 3.26172 24.4557 4.43902 24.4557H20.1463C21.3236 24.4557 22.4527 23.9703 23.2852 23.1062C24.1177 22.2421 24.5854 21.0701 24.5854 19.8481V8.15195C24.5854 7.32542 24.151 6.56552 23.4517 6.16998L12.7844 0.130499V0.130499ZM12.2927 13.3209L2.53776 7.79752L12.2927 2.27409L22.0476 7.79752L12.2927 13.3209ZM12.7844 15.4645L22.5366 9.94252V19.8481C22.5366 20.5061 22.2848 21.1372 21.8365 21.6025C21.3882 22.0677 20.7803 22.3291 20.1463 22.3291H4.43902C3.80509 22.3291 3.19712 22.0677 2.74887 21.6025C2.30061 21.1372 2.04878 20.5061 2.04878 19.8481V9.94252L11.801 15.4645C11.9517 15.5502 12.1208 15.595 12.2927 15.595C12.4645 15.595 12.6336 15.5502 12.7844 15.4645V15.4645ZM25.9512 8.16754C26.5796 8.58389 27.0968 9.15795 27.4549 9.83666C27.813 10.5154 28.0005 11.2768 28 12.0507V20.557C28 22.531 27.2445 24.4242 25.8997 25.82C24.555 27.2158 22.7311 28 20.8293 28H8.53659C7.79083 28.0007 7.05695 27.8062 6.40281 27.4345C5.74866 27.0628 5.19539 26.5259 4.79415 25.8734H20.8293C22.1877 25.8734 23.4905 25.3133 24.451 24.3163C25.4116 23.3192 25.9512 21.967 25.9512 20.557V8.16754Z" fill="black"/>
</svg>
