<svg width="30" height="30" viewBox="0 0 30 30" fill="none" xmlns="http://www.w3.org/2000/svg">
<path d="M26.595 4.5855C26.7168 4.64862 26.819 4.74395 26.8904 4.86112C26.9618 4.97828 26.9997 5.11279 27 5.25V20.25C27 20.3796 26.9665 20.507 26.9026 20.6198C26.8387 20.7326 26.7467 20.8269 26.6355 20.8935L19.1355 25.3935C19.0225 25.4612 18.8938 25.4979 18.7621 25.5C18.6305 25.5021 18.5006 25.4695 18.3855 25.4055L11.6205 21.6465C11.5107 21.5768 11.3835 21.5395 11.2534 21.539C11.1234 21.5385 10.9958 21.5747 10.8855 21.6435L10.8645 21.6555L4.1145 25.4055C4.00033 25.469 3.87156 25.5016 3.74094 25.5C3.61032 25.4984 3.48237 25.4627 3.36977 25.3965C3.25717 25.3303 3.16382 25.2358 3.09897 25.1224C3.03411 25.009 3 24.8806 3 24.75V10.5C2.99986 10.3794 3.02883 10.2605 3.08445 10.1534C3.14008 10.0463 3.22071 9.95426 3.3195 9.885L10.8195 4.635C10.9456 4.54658 11.096 4.49915 11.25 4.49915C11.404 4.49915 11.5544 4.54658 11.6805 4.635L18.75 9.585L25.8195 4.635C25.9321 4.55643 26.0641 4.51026 26.2011 4.50153C26.3381 4.4928 26.4749 4.52185 26.5965 4.5855H26.595ZM4.5 10.89V23.475L10.125 20.3505C10.2442 20.2796 10.3698 20.2198 10.5 20.172V6.69L4.5 10.89ZM12.372 20.349L18.006 23.478L18 10.89L12 6.69V20.175C12.1275 20.22 12.252 20.2785 12.372 20.349V20.349ZM19.506 23.4225L25.5 19.8255V6.69L19.5 10.89L19.506 23.4225V23.4225Z" fill="black"/>
</svg>
