<svg width="24" height="24" viewBox="0 0 24 24" fill="none" xmlns="http://www.w3.org/2000/svg">
<path d="M16.4995 17.9851C16.4995 20.4271 15.3595 22.1841 13.4925 22.1841C12.5175 22.1841 12.1515 21.6411 11.8025 20.3881L11.5955 19.6161C11.4945 19.2571 11.3185 18.6461 11.0685 17.7861C11.0618 17.7627 11.0517 17.7405 11.0385 17.7201L8.17255 13.2351C7.49443 12.1739 6.49372 11.3582 5.31755 10.9081L4.84455 10.7271C4.24078 10.4956 3.7379 10.0587 3.42426 9.49324C3.11061 8.92777 3.00627 8.26986 3.12955 7.63508L3.53355 5.54908C3.6517 4.93943 3.94204 4.37638 4.37021 3.92659C4.79838 3.4768 5.34645 3.1591 5.94955 3.01108L13.5775 1.14108C14.7936 0.843161 16.0782 1.03742 17.1518 1.68162C18.2254 2.32582 19.0012 3.36785 19.3105 4.58108L20.7255 10.1311C20.8479 10.611 20.859 11.1125 20.7579 11.5973C20.6569 12.0821 20.4463 12.5374 20.1424 12.9285C19.8385 13.3195 19.4493 13.6359 19.0044 13.8535C18.5595 14.0711 18.0708 14.1842 17.5755 14.1841H15.7535C16.2495 15.8161 16.4995 17.0761 16.4995 17.9851ZM4.59955 7.92108C4.54366 8.2096 4.59121 8.50859 4.73385 8.76554C4.8765 9.02248 5.10511 9.22095 5.37955 9.32608L5.85355 9.50708C7.32919 10.0721 8.58468 11.0956 9.43555 12.4271L12.3025 16.9131C12.3925 17.0531 12.4615 17.2061 12.5075 17.3671L13.0595 19.2871L13.2715 20.0791C13.4115 20.5671 13.4815 20.6841 13.4915 20.6841C14.3595 20.6841 14.9985 19.7001 14.9985 17.9851C14.9985 17.1011 14.6725 15.6501 14.0145 13.6701C13.9772 13.5575 13.9671 13.4376 13.9851 13.3203C14.0031 13.203 14.0487 13.0917 14.1181 12.9954C14.1875 12.8992 14.2788 12.8208 14.3844 12.7666C14.49 12.7125 14.6069 12.6842 14.7255 12.6841H17.5755C17.8422 12.684 18.1053 12.6229 18.3448 12.5056C18.5843 12.3884 18.7938 12.2179 18.9574 12.0073C19.121 11.7968 19.2344 11.5516 19.2888 11.2906C19.3432 11.0295 19.3373 10.7595 19.2715 10.5011L17.8565 4.95208C17.645 4.12183 17.1141 3.40871 16.3794 2.96787C15.6447 2.52703 14.7657 2.39413 13.9335 2.59808L6.30555 4.46808C5.98074 4.5478 5.68557 4.71892 5.455 4.96119C5.22442 5.20346 5.06811 5.50673 5.00455 5.83508L4.59955 7.92008V7.92108Z" fill="black"/>
</svg>
